<?xml version="1.0" encoding="UTF-8" standalone="no"?><!DOCTYPE svg PUBLIC "-//W3C//DTD SVG 1.1//EN" "http://www.w3.org/Graphics/SVG/1.1/DTD/svg11.dtd"><svg width="100%" height="100%" viewBox="0 0 1652 2248" version="1.1" xmlns="http://www.w3.org/2000/svg" xmlns:xlink="http://www.w3.org/1999/xlink" xml:space="preserve" xmlns:serif="http://www.serif.com/" style="fill-rule:evenodd;clip-rule:evenodd;stroke-linecap:round;stroke-linejoin:round;stroke-miterlimit:1.5;"><rect id="Artboard2" x="0" y="0" width="1651.06" height="2247.96" style="fill:none;"/><clipPath id="_clip1"><rect x="0" y="0" width="1651.06" height="2247.96"/></clipPath><g clip-path="url(#_clip1)"><g><path d="M1335.98,810.292l91.524,7.195l67.167,14.771l13.343,17.163l26.82,23.357l29.513,27.523l17.17,23.866l4.037,37.358l1.296,35.531l-17.219,29.866l-13.954,0.144l7.45,-19.083l-0.079,-14.807l-13.223,-16.828l-13,-19.307l-17.224,-16.778l-20.912,-12.437l-11.602,4.581l-8.802,37.746l-6.719,34.788l-8.956,41.981l-15.127,47.584l-13.738,31.396l-27.213,29.177l-37.814,12.498l-50.945,7.234l-98.174,5.947l-76.345,-3.859l-52.066,-3.343l-53.2,-11.023l-40.979,-21.091l-18.997,-18.291l-23.69,-26.156l-15.706,-30.456l-16.357,-28.074l-14.372,-27.841l-9.416,-23.816l-7.77,-22.379l-20.013,-15.096l-28.085,-7.068l-29.309,5.46l-18.169,17.692l-11.623,31.964l-22.356,57.087l-18.501,45.035l-24.07,40.118l-28.308,11.56l-43.576,18.586l-61.128,7.98l-55.175,2.664l-68.562,1.05l-68.225,-5.573l-42.891,-3.622l-33.307,-15.091l-17.455,-14.452l-9.716,-24.969l-13.392,-33.194l-10.388,-28.389l-10.761,-38.505l-11.063,-35.524l-7.727,-25.635l-13.892,-18.791l-3.137,-21.851l4.035,-35.256l7.983,-25.405l36.351,-6.951l49.798,-9.452l46.679,-9.039l76.174,-3.752l80.054,-2.413l89.749,5.337l63.633,13.302l62.823,16.794l51.854,16.124l34.6,2.251l41.033,-0.653l37.382,-4.628l20.511,-8.316l50.023,-15.051l50.465,-12.897l56.778,-11.866l76.25,-10.54l76.995,-6.972l102.938,3.81Zm-178.355,16.965l-75.454,10.43l-56.01,11.705l-49.885,12.749l-49.124,14.781l-19.913,8.074l-3.512,0.912l-37.383,4.628l-1.485,0.104l-41.595,0.661l-35.16,-2.287l-3.222,-0.597l-51.588,-16.041l-62.183,-16.623l-62.259,-13.015l-88.109,-5.24l-79.3,2.391l-75.054,3.697l-45.735,8.855l-49.813,9.456l-28.189,5.389l-5.097,16.221l-3.681,32.158l2.385,16.611l11.81,15.975l2.13,4.248l7.709,25.574l11.105,35.658l10.669,38.178l10.123,27.665l13.339,33.063l8.439,21.688l13.245,10.966l29.434,13.336l40.489,3.42l67.536,5.516l67.66,-1.036l54.38,-2.626l58.672,-7.659l41.918,-17.878l24.127,-9.853l21.152,-35.255l18.059,-43.959l22.252,-56.822l11.565,-31.804l1.388,-2.792l1.975,-2.412l18.169,-17.693l3.299,-2.38l3.847,-1.323l29.309,-5.46l5.934,0.185l28.085,7.068l4.973,2.381l20.014,15.095l2.864,2.913l1.892,3.62l7.674,22.102l9.053,22.896l13.89,26.909l16.359,28.076l15.037,29.16l22.153,24.459l17.189,16.55l37.484,19.292l50.391,10.441l50.998,3.275l75.48,3.814l96.846,-5.865l49.162,-6.981l33.262,-10.994l23.172,-24.844l12.496,-28.558l14.701,-46.244l8.786,-41.187l6.745,-34.916l8.862,-38.005l1.692,-4.117l2.908,-3.37l3.825,-2.278l11.603,-4.58l4.104,-0.935l4.195,0.338l3.901,1.578l20.911,12.437l2.592,1.988l17.224,16.777l1.83,2.193l12.715,18.884l11.365,14.463l-0.734,-20.106l-3.59,-33.222l-14.229,-19.779l-28.338,-26.428l-26.643,-23.2l-1.844,-1.95l-10.262,-13.201l-61.327,-13.487l-90.28,-7.097l-101.766,-3.767l-75.788,6.863Z" style="fill:#fff;"/><path d="M617.19,855.399l57.957,10.234l45.579,15.538l21.112,18.008l12.044,28.489l0.084,46.28l-9.258,39.361l-28.109,59.298l-23.429,47.321l-25.277,13.723l-59.553,14.773l-70.739,5.955l-65.025,3.659l-65.109,-2.659l-60.242,-12.76l-24.763,-15.975l-14.794,-35.317l-17.051,-49.009l-6.752,-55.534l-2.425,-47.642l6.74,-26.345l7.333,-24.445l15.345,-11.044l24.935,-10.298l54.696,-12.043l61.619,-3.244l73.485,-0.715l91.597,4.391Zm-164.649,10.21l-60.181,3.167l-52.391,11.537l-22.312,9.214l-10.198,7.34l-5.894,19.648l-6.147,24.027l2.293,45.049l6.513,53.571l16.421,47.195l12.964,30.95l18.996,12.255l56.596,11.988l63.268,2.583l64.159,-3.611l69.443,-5.845l56.755,-14.079l19.85,-10.776l21.423,-43.271l27.427,-57.859l8.548,-36.343l-0.076,-41.854l-9.673,-22.881l-16.593,-14.154l-42.053,-14.336l-56.035,-9.895l-90.317,-4.329l-72.786,0.709Z" style="fill:#fff;"/><path d="M1348.49,841.282l45.983,12.45l27.679,24.423l13.662,33.045l3.711,52.488l0.291,54.742l-8.145,29.544l-17.351,56.766l-29.008,29.693l-40.283,10.601l-50.219,6.66l-43.754,3.36l-66.446,2.179l-57.6,-4.26l-42.352,-1.299l-27.244,-3.741l-38.602,-20.383l-21.796,-15.75l-20.848,-36.133l-18.465,-36.365l-13.315,-38.343l-10.224,-44.59l-1.438,-25.73l7.693,-30.578l19.293,-20.132l42.483,-11.416l42.056,-14.23l63.531,-10.608l111.84,-9.584l128.868,7.191Zm-238.969,16.184l-61.878,10.332l-41.416,14.013l-39.168,10.525l-14.068,14.68l-6.279,24.96l1.253,22.439l9.791,42.703l12.758,36.737l17.87,35.193l19.176,33.236l18.598,13.438l35.573,18.784l24.088,3.308l41.916,1.285l57.16,4.229l65.402,-2.145l43.067,-3.308l48.974,-6.495l35.724,-9.4l23.963,-24.53l16.307,-53.352l7.585,-27.511l-0.279,-52.372l-3.52,-49.789l-11.571,-27.988l-22.833,-20.147l-41.45,-11.222l-126.435,-7.056l-110.308,9.453Z" style="fill:#fff;"/></g><path d="M977.862,1134.82l29.864,24.002l24.347,20.349l14.188,28.52l-20.527,25.542l2.943,38.69l-0.13,46.1l-14.443,-1.006l-10.101,-35.479l-12.363,-36.657l-16.607,-21.962l-0.181,-33.937l9.023,-31.594l-28.102,-41.477l22.089,18.909Zm10.89,56.07l0.145,27.336l13.821,18.278l0.516,0.73l0.468,0.763l0.419,0.791l0.366,0.816l0.313,0.838l9.753,28.917l-2.668,-35.073l-0.04,-1.045l0.039,-1.044l0.117,-1.039l0.195,-1.027l0.272,-1.01l0.347,-0.986l0.42,-0.957l0.49,-0.923l0.559,-0.884l0.624,-0.839l14.959,-18.613l-8.933,-17.957l-22.012,-18.397l-3.319,-2.667l-6.851,23.992Z" style="fill:#fff;"/><path d="M949.752,1348.84l3.145,9.546l-8.009,14.152l-12.45,3.108l-2.172,10.439l-17.855,-14.962l-9.544,-2.589l-8.462,7.855l-16.222,5.147l0.319,-11.126l10.442,-6.961l8.441,-4.086l16.42,-10.163l17.441,-5.076l11.412,-0.193l7.094,4.909Zm-16.411,9.139l-11.126,3.239l3.038,2.545l0.36,-0.213l0.549,-0.294l0.561,-0.269l0.574,-0.243l0.583,-0.218l0.593,-0.191l0.601,-0.164l6.664,-1.664l1.467,-2.593l-3.864,0.065Z" style="fill:#fff;"/><path d="M753.336,1348.66l13.295,7.62l5.094,5.871l-4.529,7.807l-10.681,4.171l-8.206,0.311l-12.975,-5.526l-6.811,-11.6l-2.71,-17.725l16.485,-1.807l11.038,10.878Z" style="fill:#fff;"/><path d="M1017.07,809.205l42.594,-17.027l49.738,-7.802l58.027,-19.429l77.626,-8l44.724,-14.312l54.026,0.475l36.456,29.442l28.371,26.317l18.378,-5.007l-1.315,-28.298l-32.107,-37.064l-55.602,-39.916l-53.307,-18.941l-83.19,6.975l-48.742,22.712l-91.312,17.537l-42.749,28.711l-18.734,20.225l-5.602,30.629l22.72,12.773" style="fill:none;stroke:#fff;stroke-width:13.89px;"/><path d="M652.698,721.823l37.741,13.298l22.266,32.506l2.681,39.613l-17.242,8.313l-66.762,-24.498l-77.059,6.489l-74.485,8.181l-69.455,3.624l-37.442,4.958l-24.26,2.048l25.134,-27.026l31.09,-31.93l23.836,-25.668l62.205,-2.474l58.95,-3.934l56.428,-8.389l46.374,4.889Zm-101.316,17.321l-59.698,3.983l-56.665,2.254l-20.048,21.59l-31.032,31.87l25.168,-3.333l69.61,-3.632l74.265,-8.157l77.235,-6.503l1.209,-0.049l1.208,0.056l1.199,0.162l1.181,0.265l1.152,0.367l61.243,22.472l3.485,-1.681l-1.79,-26.461l-17.559,-25.634l-31.925,-11.248l-42.998,-4.533l-55.24,8.212Z" style="fill:#fff;"/><path d="M727.224,1413.07l-40.479,9.378l-31.771,13.351l-25.654,30.58l-30.348,37.345l-29.36,44.299l-13.862,37.733l-25.282,33.08l-43.94,36.804l-30.632,-33.301l-5.531,-60.573l-17.124,-50.59l-46.337,-1.241l-32.831,-27.639l-18.849,-50.381l-17.157,-61.734l-3.684,69.633l14.563,54.804l17.675,72.26l16.046,55.18l31.433,63.79l19.136,58.554l37.815,76.087l27.199,69.18l48.813,63.89l53.586,65.095l47.376,61.527l85.473,74.535l90.714,23.786l96.321,-11.779l80.988,-18.833l111.872,-41.684l97.586,-46.51l61.877,-51.431l52.822,-84.239l62.174,-71.649l64.018,-61.256l15.278,-45.978l24.866,-58.467l30.389,-59.959l8.44,-54.272l13.731,-43.615l8.036,-52.966l0.984,-59.273l3.27,-61.404l3.157,-67.132l-4.834,-62.348l-11.319,92.524l-23.306,75.038l-21.291,65.901l-39.251,46.74l-49.488,23.061l-35.36,86.106l-38.947,52.998l-43.01,59.365l-38.87,28.418l-23.503,-53.778l5.197,-91.944l-28.919,-54.547l-72.876,-47.89l-42.365,-56.902l-47.161,-34.815l-73.399,-21.226l-57.43,8.629l-94.454,6.953l-72.211,2.732" style="fill:none;stroke:#fff;stroke-width:13.89px;"/><path d="M697.274,1707.81l19.769,1.579l56.571,-5.916l64.895,-5.91l54.867,-0.992l41.865,13.623l71.161,9.237l33.571,-6.317l3.703,-15.385l41.63,-0.227l28.808,15.166l13.229,14.378l-1.734,43.371l-5.942,24.28l-46.828,19.021l-39.399,0.215l-58.274,-2.385l-53.614,-7.808l-46.328,-1.456l-48.624,-3.983l-68.288,10.028l-48.356,12.29l-55.477,-16.971l-28.886,-12.253l-9.613,-63.42l-0.171,-32.285l48.879,-3.593l27.357,-2.688l5.229,18.401Zm-31.397,-1.874l-36.111,2.654l0.098,18.302l8.298,54.748l21.074,8.939l51.066,15.622l44.588,-11.333l1.404,-0.28l68.288,-10.029l1.573,-0.14l1.579,0.039l48.275,3.955l45.979,1.445l1.565,0.138l52.901,7.704l57.232,2.342l36.404,-0.198l37.773,-15.343l3.924,-16.032l1.449,-36.243l-7.717,-8.387l-23.61,-12.43l-27.276,0.149l-1.157,4.805l-0.461,1.527l-0.633,1.463l-0.797,1.381l-0.95,1.281l-1.091,1.163l-1.216,1.03l-1.327,0.885l-1.419,0.726l-1.493,0.56l-1.548,0.384l-33.57,6.317l-1.445,0.194l-1.458,0.042l-1.453,-0.112l-71.162,-9.237l-1.268,-0.225l-1.242,-0.341l-39.647,-12.902l-52.031,0.941l-64.299,5.856l-56.479,5.907l-1.275,0.074l-1.276,-0.043l-19.768,-1.58l-1.519,-0.206l-1.486,-0.372l-1.436,-0.533l-1.369,-0.689l-1.285,-0.835l-1.185,-0.972l-1.07,-1.096l-0.944,-1.207l-0.804,-1.305l-0.656,-1.384l-0.5,-1.449l-2.058,-7.24l-15.979,1.57Z" style="fill:#fff;"/><path d="M826.046,1489.36l30.577,4.554l43.946,-7.557l45.787,25.76l55.096,32.422l46.792,48.442l20.453,36.474l13.041,38.538l-17.625,10.525l-29.546,2.563l-23.339,-27.885l-33.234,-32.015l-49.545,-31.537l-37.577,-7.964l-33.227,-3.194l-24.71,8.545l-32.86,3.122l-36.678,29.048l-24.028,14.644l-22.766,24.23l-14.629,19.624l-67.554,2.439l6.005,-66.26l24.552,-37.387l38.198,-37.529l45.405,-33.074l40.632,-21.642l36.834,5.114Zm-70.076,28.328l-43.791,31.898l-36.408,35.771l-21.827,33.238l-4.269,47.094l45.144,-1.63l10.649,-14.285l0.489,-0.619l0.524,-0.59l22.766,-24.23l0.893,-0.869l0.967,-0.785l1.034,-0.696l23.301,-14.201l36.01,-28.519l1.082,-0.775l1.151,-0.668l1.209,-0.555l1.257,-0.437l1.293,-0.314l1.317,-0.189l31.206,-2.966l23.14,-8.001l1.43,-0.411l1.466,-0.254l1.485,-0.097l1.486,0.063l33.227,3.194l1.55,0.238l37.577,7.964l1.203,0.311l1.17,0.418l1.128,0.521l1.078,0.62l49.545,31.537l1.131,0.803l1.046,0.911l33.234,32.016l1.015,1.088l18.697,22.337l19.158,-1.662l5.254,-3.137l-9.033,-26.694l-18.947,-33.786l-44.229,-45.79l-53.35,-31.394l-41.369,-23.274l-39.082,6.72l-1.462,0.172l-1.472,0.017l-1.466,-0.14l-30.509,-4.544l-32.303,-4.484l-35.795,19.065Z" style="fill:#fff;"/><path d="M1635.13,1110.34l-5.726,28.243l-16.148,-21.899l-24.688,-0.644l-12.004,-3.881l14.417,-20.425l35.182,-4.416l8.967,23.022Zm-20.986,-7.515l0.023,0.001l0.547,0.047l0.545,0.068l0.541,0.09l0.538,0.111l0.533,0.133l0.527,0.153l0.155,0.052l-0.402,-1.033l-3.007,0.378Z" style="fill:#fff;"/><path d="M1623.74,1200.97l1.196,26.954l-0.63,36.475l-4.094,35.349l-6.952,17.233l-30.405,19.169l-13.833,7.874l16.134,4.387l28.164,-15.76l7.795,-40.7" style="fill:none;stroke:#fff;stroke-width:13.89px;"/><path d="M685.087,997.146l-29.798,1.632l-36.228,8.7l-31.269,16.444l-60.864,3.348l-43.066,-7.931l-19.168,-19.03l0.313,-40.556l19.007,-24.319l36.287,-17.51l59.613,-10.683l27.039,13.364l40.116,28.535l22.987,20.62l15.031,27.386" style="fill:none;stroke:#fff;stroke-width:13.89px;"/><path d="M581.61,936.799l7.7,16.654l10.056,23.763l-4.354,29.366l-17.953,10.855l-59.634,2.455l-15.873,-20.219l-0.253,-27.134l8.05,-27.181l38.746,-14.848l33.515,6.289Zm-60.89,19.076l-5.513,18.614l0.189,20.327l8.563,10.906l48.965,-2.015l9.308,-5.628l2.823,-19.042l-8.447,-19.962l-4.599,-9.946l-22.613,-4.244l-28.676,10.99Z" style="fill:#fff;"/><path d="M560.818,979.591l1.247,8.339l-0.596,5.634l-7.252,0.069l-10.968,-3.48l-1.022,-8.74l8.43,-2.486l10.161,0.664Z" style="fill:#fff;"/><path d="M1206.98,910.355l28.711,14.297l27.545,21.775l13.372,13.516l-1.785,15.42l-12.974,14.65l-23.016,17.705l-22.052,12.18l-22.26,1.118l-26.441,-1.565l-38.982,-3.277l-16.96,-7.975l-4.821,-5.716l-14.609,-1.499l-17.764,-0.404l-13.023,-1.536l-17.44,-2.843l-5.365,-9.771l18.411,-18.998l17.672,-5.81l17.145,-21.953l39.375,-27.924l43.791,-5.354l31.47,3.964Zm-70.091,14.75l-34.851,24.716l-15.892,20.35l-0.66,0.783l-0.716,0.733l-0.768,0.678l-0.815,0.62l-0.86,0.557l-0.897,0.493l-0.932,0.426l-0.961,0.355l-14.419,4.741l-4.968,5.126l3.703,0.604l12.065,1.423l17.658,0.402l15.158,1.555l1.056,0.149l1.041,0.23l1.02,0.31l0.994,0.386l0.961,0.462l0.923,0.534l0.879,0.603l0.83,0.669l0.777,0.73l0.718,0.788l2.864,3.395l11.952,5.62l36.323,3.054l25.512,1.509l18.293,-0.918l18.321,-10.12l21.132,-16.255l9.199,-10.387l0.515,-4.455l-8.086,-8.174l-25.749,-20.355l-25.307,-12.602l-27.417,-3.454l-38.596,4.719Z" style="fill:#fff;"/><path d="M1109.46,1000.42l-6.311,-14.748l2.803,-17.495l9.383,-22.221l17.076,-11.253l20.753,-5.646l21.751,4.115l20.624,7.895l8.349,11.728l8.13,15.064l0.143,15.421l-4.95,15.399l-6.651,10.144l-8.413,4.441l-11.744,4.3l-42.309,-1.311l-28.634,-15.833" style="fill:none;stroke:#fff;stroke-width:13.89px;"/><path d="M1165.19,975.407l2.496,7.439l-7.452,6.603l-10.058,-1.909l-6.147,-10.283l10.48,-2.491l10.681,0.641Z" style="fill:#fff;"/><path d="M709.723,1213.51l-10.07,32.118l-4.375,28.48l-6.243,22.901l-7.398,30.603l18.183,54.226l21.022,11.79l19.079,-1.852l-19.17,-22.799l-5.485,-27.015l6.116,-18.462l26.658,8.353l-7.005,-22.661l-32.695,-1.835l-14.284,-28.767" style="fill:none;stroke:#fff;stroke-width:13.89px;"/><path d="M1531.12,961.79l12.917,14.721l15.462,18.836l-6.684,23.053l-4.882,20.139l-8.788,4.468l3.052,29.679l-2.352,46.208l-0.136,35.772l13.606,-6.109l0.146,15.63l-1.53,23.965l-3.404,18.573l-10.122,0.299l-1.582,-13.739l-3.378,-26.395l-3.976,-33.455l1.642,-35.518l-6.321,-44.378l2.971,-48.932l-5.868,-43.675l9.227,0.858Zm10.406,40.968l0.091,0.894l0.032,0.898l-0.025,0.899l-0.129,2.117l2.628,-9.061l-3.788,-4.615l1.191,8.868Z" style="fill:#fff;"/><path d="M1581.15,842.622l29.257,-48.63l39.077,-119.971l0.711,-124.035l-42.734,-117.073l-97.361,-96.402l-168.45,-119.354l-138.932,-65.53l-181.833,-56.466l-161.607,-26.507l-206.773,1.954l-168.969,37.903l-110.282,49.981l-136.543,79.592l-134.943,130.765l-34.138,90.556l0.645,69.311l29.46,78.6l57.461,86.423l70.644,81.034l41.019,20.171l1.118,40.415l26.001,6.354l30.653,-35.192l23.255,-119.553l40.41,-80.791l68.77,-71.087l103.673,-73.173l125.691,-38.02l116.622,-21.058l110.893,3.858l112.537,22.414l97.396,25.304l89.531,43.964l74.606,42.325l58.161,43.734l36.531,38.401l37.34,46.28l35.481,43.408l45.988,56.29l13.09,36.791l22.21,42.008l44.334,-4.994" style="fill:none;stroke:#fff;stroke-width:13.89px;"/><path d="M1331.59,201.792l-38.043,-32.927l-43.652,-24.52l-54.071,-35.352l-64.515,-26.405l-43.06,-20.747l-70.13,-25.127l-41.442,-12.13l-46.822,2.33l-58.891,3.713l-57.296,8.384l-34.938,14.271l-1.831,11.085" style="fill:none;stroke:#fff;stroke-width:13.89px;"/><path d="M935,1606.66l-7.406,22.427l-14.123,5.556l-10.097,-1.135l-12.756,-0.215l-22.596,2.808l-10.831,-2.656l-5.922,-4.897l-5.57,3.697l-26.813,1.197l-29.661,0.165l-9.623,-4.415l-5.706,-7.972l-2.154,-4.503" style="fill:none;stroke:#fff;stroke-width:13.89px;"/><path d="M852.361,1625.83l-0.153,-16.476l-0.188,-20.185l1.82,-4.891" style="fill:none;stroke:#fff;stroke-width:13.89px;"/></g></svg>